<svg height="17.998" width="19.5215" xmlns="http://www.w3.org/2000/svg"><path d="m0 0h19.5215v17.998h-19.5215z" opacity="0"/><path d="m4.4043 17.998h10.7129c1.9238 0 2.9492-.996 2.9492-2.9101v-10.4297h-1.5723v10.5078c0 .8789-.4882 1.3574-1.3574 1.3574h-10.75193c-.87891 0-1.35743-.4785-1.35743-1.3574v-10.5078h-1.57226v10.4297c0 1.9238 1.02539 2.9101 2.94922 2.9101zm2.13867-8.67183h6.44533c.4101 0 .7031-.2832.7031-.71289v-.3125c0-.42969-.293-.70312-.7031-.70312h-6.44533c-.41016 0-.69336.27343-.69336.70312v.3125c0 .42969.2832.71289.69336.71289zm-4.6875-3.93555h15.81053c1.2012 0 1.8555-.75195 1.8555-1.94335v-1.48438c0-1.191406-.6543-1.9433588-1.8555-1.9433588h-15.81053c-1.142579 0-1.85547.7519528-1.85547 1.9433588v1.48438c0 1.1914.654297 1.94335 1.85547 1.94335zm.40039-1.4746c-.48828 0-.68359-.20508-.68359-.69336v-1.03516c0-.48828.19531-.69336.68359-.69336h15.01954c.4883 0 .6738.20508.6738.69336v1.03516c0 .48828-.1855.69336-.6738.69336z" fill="#fff" fill-opacity=".85"/></svg>