<svg height="19.9316" width="19.9219" xmlns="http://www.w3.org/2000/svg"><path d="m0 0h19.9219v19.9316h-19.9219z" opacity="0"/><path d="m10.3711 17.4707c1.8555 0 3.418-2.832 3.8184-3.4961.5078-.8301.2734-1.6601.2734-2.1484 0-.3028 1.0351-1.0547 1.0351-1.94339 0-.89843-2.0019-1.64062-2.0019-2.00195 0-.23438.1953-.51758.3906-.51758.3809 0 1.4356 1.35742 2.0801 1.35742.3906 0 .5078-.34179.6641-.34179.2636 0 .4687 2.90039 1.8164 3.49609l.4101-.8984c-1.2402-.3223-.7812-3.66215-2.1191-3.66215-.4297 0-.6934.38086-.8594.38086-.1074 0-.3613-.21484-.9375-.68359-.2832-.22461-.5762-.52734-1.1035-.52734-.6445 0-1.2695.73242-1.2695 1.40624 0 1.06446 1.9433 1.6211 1.9433 1.99219 0 .22459-.0879.40039-.4492.81059-.4004.4492-.5859.7519-.5859 1.1328 0 .166.0195.3222.0293.4687.0488.6543.0195.8985-.1661 1.211-.4492.6933-1.7285 2.9785-2.9687 2.9785-1.10352 0-1.00587-1.5821-1.00587-3.0469 0-1.4258-1.13281-2.5-2.63671-2.5-1.16211 0-1.71875-.5664-1.71875-1.66016 0-1.52343 1.60156-2.51953 3.125-2.51953 1.02539 0 1.83593.51758 2.63673.51758.6543 0 1.1133-.97656 1.1133-1.69922 0-.9082-1.92386-1.91406-2.5098-1.91406-.47852 0-.68359.2832-.72266.89844l.19532-.01953-.3125-.24414c-.41016-.30274-.73243-.47852-1.10352-.47852-.9375 0-.97656 1.25976-1.47461 1.25976-.12695 0-.21484-.08789-.21484-.2246 0-.42969 1.04492-1.3086 1.05469-2.51954l.00976-.79101h-.92773v.87891c0 1.17187-1.04493 1.60156-1.04493 2.52929 0 .56641.4004.9375 1.01563.9375 1.16211 0 1.18164-1.23047 1.65039-1.23047.37109.00977.80078.6543 1.54297.6543.44922 0 .66406-.3125.64453-.85938l-.27344.0879c.59574.21484 1.54294.68359 1.54294 1.12304 0 .25391-.1074.625-.3125.625-.4199 0-1.52341-.51758-2.50973-.51758-2.06055 0-4.11133 1.43555-4.11133 3.50586 0 1.65036.97656 2.64646 2.70508 2.64646.94726 0 1.65039.6348 1.65039 1.5137 0 1.4453-.16602 4.0332 1.99219 4.0332zm2.6367-13.45703c.2149 0 .4102.20508.7715.20508.2246 0 .3906-.20508.3906-.46875 0-.47852-.5371-.83984-1.2402-.83984-.8301 0-1.3086.27343-1.3086.75195 0 .3125.2344.53711.5469.53711.3222 0 .4687-.18555.8398-.18555zm-3.04686 15.90823c5.44926 0 9.96096-4.5215 9.96096-9.96096 0-5.44922-4.5215-9.96094-9.97073-9.96094-5.43945 0-9.95117 4.51172-9.95117 9.96094 0 5.43946 4.52148 9.96096 9.96094 9.96096zm0-1.3281c-4.7168 0-8.63282-3.9161-8.63282-8.63286 0-4.7168 3.90626-8.63282 8.62305-8.63282 4.71683 0 8.64263 3.91602 8.64263 8.63282 0 4.71676-3.9161 8.63286-8.63286 8.63286z" fill="#fff" fill-opacity=".85"/></svg>