<svg height="19.0801" width="18.7798" xmlns="http://www.w3.org/2000/svg"><path d="m0 0h18.7798v19.0801h-18.7798z" opacity="0"/><path d="m16.6111 16.9278c2.4317-2.4317 2.8223-5.4493 1.1524-8.96489l-2.1973-4.6289c-.1563-.32227-.3418-.58594-.5469-.79102-.7324-.73242-1.7969-.69336-2.5.00977-.4785.47851-.625 1.1914-.3125 1.96289l.6543 1.5625c.0195.03906.0195.07812-.0097.10742-.0391.0293-.0782.01953-.1172-.00976l-5.53714-5.537114c-.80079-.810547-1.81641-.810547-2.58789-.039063-.28321.273438-.43946.634767-.44922 1.005857-.80078-.615232-1.68946-.5957-2.37305.08789-.67383.67383-.69336 1.5918-.11719 2.37305-.35156 0-.683592.15625-.937498.41016-.7128905.71289-.6933592 1.68945.06836 2.45117l.771488.77148c-.38086-.00976-.761723.16602-1.054692.45899-.722656.72265-.683593 1.74804.087891 2.51957l5.937501 5.9375c3.23242 3.2324 7.14844 3.2324 10.06834.3125zm-.9863-.918c-2.4414 2.4414-5.5078 2.3633-8.28126-.4199l-5.72266-5.72269c-.30273-.29297-.3125-.69336-.02929-.97656.2832-.2832.69336-.2832.98633.00976l3.53515 3.52539c.25391.2539.625.2246.84961 0 .24414-.2344.27344-.6152.01953-.8691l-5.27344-5.28324c-.29296-.29297-.3125-.68359-.02929-.9668.2832-.29296.70312-.29296.99609 0l4.92188 4.93164c.2539.2539.63476.2148.85937-.0098.23438-.23434.27344-.61519.01953-.8691l-5.78125-5.78125c-.29297-.29297-.3125-.70313-.01953-.98633.27344-.2832.69336-.27344.98633.01953l5.78125 5.78125c.23437.24414.61525.23438.84965 0 .2441-.24414.2636-.63476.0293-.86914l-4.93168-4.93164c-.29297-.29297-.30274-.69336-.01954-.98633.29297-.2832.69336-.27343.98633.01953l6.79689 6.79688c.3418.35156.7519.3418 1.0351.05859.2442-.24414.3516-.5664.1563-1.07422l-1.2207-3.20312c-.166-.43945-.0098-.79102.3223-.94727.371-.16601.7031.00977.9179.46875l2.2656 4.78516c1.5137 3.20311.918 5.56641-1.0058 7.50001z" fill="#fff" fill-opacity=".85"/></svg>